<?xml version="1.0" encoding="utf-8"?>
<!-- Generator: Adobe Illustrator 15.1.0, SVG Export Plug-In . SVG Version: 6.00 Build 0)  -->
<!DOCTYPE svg PUBLIC "-//W3C//DTD SVG 1.1//EN" "http://www.w3.org/Graphics/SVG/1.1/DTD/svg11.dtd">
<svg version="1.1" id="Layer_1" xmlns="http://www.w3.org/2000/svg" xmlns:xlink="http://www.w3.org/1999/xlink" x="0px" y="0px"
	 width="1000px" height="1000px" viewBox="0 0 1000 1000" enable-background="new 0 0 1000 1000" xml:space="preserve">
<g>
	<g>
		<g>
			<path fill="#BEC4C6" d="M775.204,741.676c0,28.461-23.073,51.537-51.537,51.537H276.333c-28.464,0-51.537-23.076-51.537-51.537
				v-447.34c0-28.463,23.073-51.537,51.537-51.537h447.334c28.464,0,51.537,23.074,51.537,51.537V741.676z"/>
			<g>
				<path fill="#BEC4C6" d="M351.967,253.396c0,11.701-13.259,21.186-29.607,21.186l0,0c-16.349,0-29.605-9.484-29.605-21.186
					v-25.424c0-11.701,13.257-21.186,29.605-21.186l0,0c16.349,0,29.607,9.484,29.607,21.186V253.396z"/>
				<path fill="#BEC4C6" d="M470.391,253.396c0,11.701-13.256,21.186-29.605,21.186l0,0c-16.349,0-29.605-9.484-29.605-21.186
					v-25.424c0-11.701,13.257-21.186,29.605-21.186l0,0c16.35,0,29.605,9.484,29.605,21.186V253.396z"/>
				<path fill="#BEC4C6" d="M588.818,253.396c0,11.701-13.256,21.186-29.606,21.186l0,0c-16.35,0-29.606-9.484-29.606-21.186
					v-25.424c0-11.701,13.257-21.186,29.606-21.186l0,0c16.351,0,29.606,9.484,29.606,21.186V253.396z"/>
				<path fill="#BEC4C6" d="M707.245,253.396c0,11.701-13.259,21.186-29.606,21.186l0,0c-16.35,0-29.607-9.484-29.607-21.186
					v-25.424c0-11.701,13.258-21.186,29.607-21.186l0,0c16.348,0,29.606,9.484,29.606,21.186V253.396z"/>
			</g>
		</g>
		<path fill="#FFFFFF" d="M733.435,416.52v299.12c0,19.03-19.58,34.46-43.72,34.46H310.284c-24.149,0-43.72-15.43-43.72-34.46
			V416.52c0-19.029,19.57-34.46,43.72-34.46h379.431C713.854,382.06,733.435,397.49,733.435,416.52z"/>
		<g>
			<path fill="#BEC4C6" d="M431.685,416.3v-0.67c19.62-6.87,32.05-18.76,37.3-33.57h-41.21c-6.4,14.021-25.36,19.84-40.96,19.84
				h-18.42v30.141h19.09c25.11,0,49.22,11.05,49.22,36.83c0.34,17.08-12.39,34.83-43.859,34.83c-20.771,0-41.19-8.37-49.561-13.4
				l-9.38,31.15c11.72,7.7,34.49,15.06,60.95,15.06c53.91,0,84.72-29.13,84.72-65.96C479.574,441.08,458.145,420.979,431.685,416.3z
				"/>
			<path fill="#BEC4C6" d="M664.305,382.06h-41c2.41,11.51,3.609,25.36,3.609,41.271c0,52.239-12.729,81.71-36.84,81.71
				c-22.77,0-37.5-27.46-37.17-80.37c-0.1-16.8,1.29-31.01,3.9-42.61h-40.99c-2.93,12.86-4.43,27.16-4.43,42.61
				c0.33,66.3,27.12,111.84,77.35,111.84c51.91,0,79.37-43.86,79.37-113.85C668.104,408.12,666.854,394.47,664.305,382.06z"/>
		</g>
	</g>
	<g>
		<path fill="#50B2EF" d="M426.271,597.64c-50.9,0-79.7,45.54-79.7,113.181c0.07,14.12,1.34,27.29,3.79,39.279h41.01
			c-2.22-10.949-3.37-24.06-3.28-39.279c-0.33-54.58,15.07-81.7,37.17-81.7c24.78,0,36.841,29.8,36.841,80.36
			c0,15.64-1.141,29.239-3.391,40.619h40.811c2.51-12.439,3.77-26.27,3.77-41.29C503.291,644.52,478.841,597.64,426.271,597.64z"/>
		<path fill="#50B2EF" d="M599.062,601.32l-52.91,26.12l7.03,31.14l39.85-20.09h0.67V750.1h39.85V601.32H599.062z"/>
	</g>
</g>
</svg>
