<?xml version="1.0" encoding="utf-8"?>
<!-- Generator: Adobe Illustrator 15.1.0, SVG Export Plug-In . SVG Version: 6.00 Build 0)  -->
<!DOCTYPE svg PUBLIC "-//W3C//DTD SVG 1.1//EN" "http://www.w3.org/Graphics/SVG/1.1/DTD/svg11.dtd">
<svg version="1.1" id="Layer_1" xmlns="http://www.w3.org/2000/svg" xmlns:xlink="http://www.w3.org/1999/xlink" x="0px" y="0px"
	 width="914px" height="339.911px" viewBox="0 0 914 339.911" enable-background="new 0 0 914 339.911" xml:space="preserve">
<g>
	<g>
		<path fill="#50B2EF" d="M281.057,137.984c6.445-1.075,14.68-1.672,23.395-1.672c15.037,0,25.422,3.104,32.822,9.31
			c7.758,6.326,12.531,15.875,12.531,29.602c0,14.323-4.895,25.064-12.531,31.986c-7.998,7.281-20.77,10.98-36.404,10.98
			c-8.594,0-15.039-0.477-19.813-1.073V137.984z M295.736,206.137c2.029,0.357,5.133,0.357,8.117,0.357
			c19.096,0.119,30.436-10.384,30.436-30.794c0.119-17.784-10.146-27.929-28.527-27.929c-4.654,0-7.996,0.358-10.025,0.835V206.137z
			"/>
		<path fill="#50B2EF" d="M394.68,217.355l-0.955-6.445h-0.357c-3.58,4.536-9.668,7.759-17.188,7.759
			c-11.695,0-18.262-8.475-18.262-17.307c0-14.682,13.012-22.081,34.494-21.961v-0.955c0-3.819-1.551-10.146-11.816-10.146
			c-5.729,0-11.697,1.792-15.635,4.298l-2.865-9.548c4.297-2.626,11.818-5.134,21.006-5.134c18.621,0,23.992,11.817,23.992,24.469
			v21.006c0,5.252,0.238,10.385,0.834,13.965H394.68z M392.771,188.949c-10.385-0.239-20.291,2.029-20.291,10.861
			c0,5.729,3.699,8.355,8.354,8.355c5.85,0,10.145-3.82,11.459-7.997c0.359-1.074,0.479-2.268,0.479-3.224V188.949z"/>
		<path fill="#50B2EF" d="M438.723,142.64v16.591h13.963v10.979h-13.963v25.662c0,7.042,1.908,10.741,7.518,10.741
			c2.506,0,4.416-0.358,5.729-0.717l0.238,11.221c-2.148,0.835-5.967,1.432-10.623,1.432c-5.369,0-9.904-1.79-12.65-4.773
			c-3.104-3.342-4.535-8.594-4.535-16.232V170.21h-8.355V159.23h8.355v-13.13L438.723,142.64z"/>
		<path fill="#50B2EF" d="M473.451,192.411c0.359,10.503,8.594,15.038,17.904,15.038c6.803,0,11.695-0.955,16.113-2.626
			l2.148,10.145c-5.014,2.029-11.936,3.581-20.291,3.581c-18.859,0-29.959-11.577-29.959-29.36c0-16.114,9.789-31.272,28.408-31.272
			c18.859,0,25.064,15.517,25.064,28.288c0,2.745-0.24,4.895-0.477,6.207H473.451z M498.994,182.146
			c0.119-5.371-2.268-14.203-12.055-14.203c-9.07,0-12.891,8.235-13.488,14.203H498.994z"/>
		<path fill="#50B2EF" d="M525.25,137.984c5.252-0.955,12.533-1.672,22.439-1.672c10.742,0,18.619,2.268,23.752,6.565
			c4.773,3.938,7.877,10.264,7.877,17.784c0,7.638-2.387,13.965-6.922,18.261c-5.85,5.849-15.039,8.594-25.424,8.594
			c-2.744,0-5.252-0.119-7.162-0.478v30.316H525.25V137.984z M539.811,175.462c1.793,0.478,4.18,0.597,7.162,0.597
			c10.982,0,17.664-5.371,17.664-14.8c0-8.952-6.205-13.726-16.352-13.726c-4.057,0-6.922,0.358-8.475,0.715V175.462z"/>
		<path fill="#50B2EF" d="M605.574,142.997c0,4.416-3.225,7.879-8.354,7.879c-4.895,0-8.117-3.463-8.117-7.879
			c0-4.535,3.342-7.996,8.234-7.996C602.35,135.001,605.455,138.462,605.574,142.997z M589.939,217.355V159.23h14.799v58.125
			H589.939z"/>
		<path fill="#50B2EF" d="M663.223,215.565c-3.104,1.432-9.189,2.983-16.471,2.983c-18.143,0-29.959-11.577-29.959-29.6
			c0-17.426,11.936-31.033,32.346-31.033c5.371,0,10.861,1.194,14.205,2.746l-2.627,10.98c-2.387-1.074-5.848-2.268-11.1-2.268
			c-11.221,0-17.904,8.236-17.785,18.857c0,11.937,7.758,18.739,17.785,18.739c5.131,0,8.713-1.075,11.576-2.269L663.223,215.565z"
			/>
		<path fill="#50B2EF" d="M688.762,184.771h0.24c1.432-2.268,3.104-4.774,4.654-6.804l14.084-18.737h17.664l-21.484,23.751
			l24.588,34.374h-18.023l-16.709-25.661l-5.014,5.849v19.813h-14.68v-84.742h14.68V184.771z"/>
		<path fill="#50B2EF" d="M744.381,192.411c0.357,10.503,8.594,15.038,17.902,15.038c6.805,0,11.697-0.955,16.113-2.626l2.15,10.145
			c-5.014,2.029-11.936,3.581-20.293,3.581c-18.857,0-29.957-11.577-29.957-29.36c0-16.114,9.787-31.272,28.406-31.272
			c18.859,0,25.064,15.517,25.064,28.288c0,2.745-0.238,4.895-0.477,6.207H744.381z M769.922,182.146
			c0.119-5.371-2.268-14.203-12.055-14.203c-9.07,0-12.891,8.235-13.486,14.203H769.922z"/>
		<path fill="#50B2EF" d="M795.582,177.968c0-7.876-0.121-13.486-0.477-18.737h12.77l0.479,11.099h0.477
			c2.865-8.234,9.668-12.413,15.875-12.413c1.432,0,2.268,0.12,3.461,0.358v13.845c-1.193-0.238-2.506-0.477-4.297-0.477
			c-7.043,0-11.816,4.535-13.129,11.101c-0.238,1.313-0.477,2.864-0.477,4.536v30.076h-14.682V177.968z"/>
	</g>
	<g>
		<g>
			<g>
				<path fill="#BEC4C6" d="M238.027,239.827c0,7.869-6.379,14.25-14.25,14.25H100.086c-7.871,0-14.252-6.381-14.252-14.25V116.133
					c0-7.87,6.381-14.251,14.252-14.251h123.691c7.871,0,14.25,6.381,14.25,14.251V239.827z"/>
				<g>
					<path fill="#BEC4C6" d="M120.998,104.813c0,3.235-3.666,5.858-8.188,5.858l0,0c-4.52,0-8.186-2.623-8.186-5.858v-7.029
						c0-3.235,3.666-5.858,8.186-5.858l0,0c4.521,0,8.188,2.623,8.188,5.858V104.813z"/>
					<path fill="#BEC4C6" d="M153.744,104.813c0,3.235-3.666,5.858-8.188,5.858l0,0c-4.52,0-8.186-2.623-8.186-5.858v-7.029
						c0-3.235,3.666-5.858,8.186-5.858l0,0c4.521,0,8.188,2.623,8.188,5.858V104.813z"/>
					<path fill="#BEC4C6" d="M186.49,104.813c0,3.235-3.666,5.858-8.186,5.858l0,0c-4.521,0-8.188-2.623-8.188-5.858v-7.029
						c0-3.235,3.666-5.858,8.188-5.858l0,0c4.52,0,8.186,2.623,8.186,5.858V104.813z"/>
					<path fill="#BEC4C6" d="M219.236,104.813c0,3.235-3.666,5.858-8.186,5.858l0,0c-4.521,0-8.188-2.623-8.188-5.858v-7.029
						c0-3.235,3.666-5.858,8.188-5.858l0,0c4.52,0,8.186,2.623,8.186,5.858V104.813z"/>
				</g>
			</g>
			<path fill="#FFFFFF" d="M226.479,149.918v82.709c0,5.263-5.414,9.529-12.09,9.529H109.473c-6.678,0-12.09-4.267-12.09-9.529
				v-82.709c0-5.262,5.412-9.528,12.09-9.528h104.916C221.064,140.39,226.479,144.656,226.479,149.918z"/>
			<g>
				<path fill="#BEC4C6" d="M143.041,149.857v-0.186c5.426-1.899,8.863-5.187,10.314-9.282h-11.396
					c-1.77,3.877-7.012,5.485-11.324,5.485h-5.094v8.335h5.279c6.941,0,13.609,3.055,13.609,10.184
					c0.094,4.723-3.426,9.631-12.127,9.631c-5.744,0-11.391-2.314-13.705-3.705l-2.594,8.613c3.24,2.129,9.537,4.163,16.854,4.163
					c14.906,0,23.426-8.054,23.426-18.237C156.283,156.709,150.357,151.151,143.041,149.857z"/>
				<path fill="#BEC4C6" d="M207.363,140.39h-11.338c0.668,3.183,0.998,7.013,0.998,11.411c0,14.445-3.52,22.594-10.186,22.594
					c-6.297,0-10.369-7.593-10.277-22.223c-0.027-4.646,0.355-8.574,1.078-11.782h-11.334c-0.811,3.556-1.225,7.51-1.225,11.782
					c0.09,18.332,7.498,30.924,21.387,30.924c14.355,0,21.947-12.127,21.947-31.479C208.414,147.596,208.068,143.821,207.363,140.39
					z"/>
			</g>
		</g>
		<g>
			<path fill="#50B2EF" d="M141.545,200c-14.074,0-22.039,12.591-22.039,31.296c0.02,3.903,0.371,7.545,1.049,10.86h11.34
				c-0.615-3.027-0.932-6.653-0.908-10.86c-0.09-15.093,4.168-22.592,10.279-22.592c6.852,0,10.188,8.24,10.188,22.221
				c0,4.324-0.316,8.085-0.939,11.231h11.285c0.695-3.439,1.043-7.265,1.043-11.418C162.842,212.962,156.08,200,141.545,200z"/>
			<path fill="#50B2EF" d="M189.322,201.018l-14.631,7.222l1.945,8.611l11.018-5.555h0.186v30.86h11.02v-41.139H189.322z"/>
		</g>
	</g>
</g>
</svg>
